<?xml version="1.0" encoding="UTF-8" standalone="no"?>
<svg
   xmlns:dc="http://purl.org/dc/elements/1.1/"
   xmlns:cc="http://creativecommons.org/ns#"
   xmlns:rdf="http://www.w3.org/1999/02/22-rdf-syntax-ns#"
   xmlns:svg="http://www.w3.org/2000/svg"
   xmlns="http://www.w3.org/2000/svg"
   xmlns:sodipodi="http://sodipodi.sourceforge.net/DTD/sodipodi-0.dtd"
   xmlns:inkscape="http://www.inkscape.org/namespaces/inkscape"
   version="1.1"
   id="svg980"
   width="5664"
   height="3802.5601"
   viewBox="0 0 5664 3802.5601"
   sodipodi:docname="Super Chipmunk CL-decals-cut-1.0-red.svg"
   inkscape:version="1.0.2 (e86c870879, 2021-01-15)">
  <metadata
     id="metadata986">
    <rdf:RDF>
      <cc:Work
         rdf:about="">
        <dc:format>image/svg+xml</dc:format>
        <dc:type
           rdf:resource="http://purl.org/dc/dcmitype/StillImage" />
        <dc:title></dc:title>
      </cc:Work>
    </rdf:RDF>
  </metadata>
  <defs
     id="defs984" />
  <sodipodi:namedview
     pagecolor="#ffffff"
     bordercolor="#666666"
     borderopacity="1"
     objecttolerance="10"
     gridtolerance="10"
     guidetolerance="10"
     inkscape:pageopacity="0"
     inkscape:pageshadow="2"
     inkscape:window-width="3440"
     inkscape:window-height="1384"
     id="namedview982"
     showgrid="false"
     inkscape:zoom="0.22625"
     inkscape:cx="447.88511"
     inkscape:cy="2269.3344"
     inkscape:window-x="0"
     inkscape:window-y="0"
     inkscape:window-maximized="1"
     inkscape:current-layer="svg980"
     showguides="false"
     inkscape:guide-bbox="true"
     inkscape:document-rotation="0">
    <sodipodi:guide
       position="2985.7422,2832.8335"
       orientation="1,0"
       id="guide1038" />
    <sodipodi:guide
       position="2826.6194,2704.7523"
       orientation="1,0"
       id="guide1166" />
    <sodipodi:guide
       position="3144.8653,2927.6245"
       orientation="1,0"
       id="guide1039" />
  </sodipodi:namedview>
  <path
     style="display:inline;fill:none;stroke:#000000;stroke-width:1px;stroke-linecap:butt;stroke-linejoin:miter;stroke-opacity:1"
     d="m 1327.3432,1746.7237 -498.94722,-34.6295 -14.9517,-33.5473 528.95802,-7.0096 a 56.69854,56.69854 0 0 1 -0.394,2.1929 z"
     id="path4415" />
  <path
     style="display:inline;fill:none;stroke:#000000;stroke-width:1px;stroke-linecap:butt;stroke-linejoin:miter;stroke-opacity:1"
     d="m 1392.4493,1485.5336 -434.24462,-5.1103 -19.4383,-28.0167 454.30812,-23.5448 z"
     id="path4413" />
  <path
     style="display:inline;fill:none;stroke:#000000;stroke-width:1px;stroke-linecap:butt;stroke-linejoin:miter;stroke-opacity:1"
     d="m 953.77388,1792.9701 -71.7901,372.5354 -34.8955,20.8244 51.9407,-397.7217 z"
     id="path2441" />
  <path
     style="display:inline;fill:none;stroke:#000000;stroke-width:1px;stroke-linecap:butt;stroke-linejoin:miter;stroke-opacity:1"
     d="m 835.79168,1253.0177 500.07072,-8.76 16.6679,-32.7284 -527.88632,-34.3767 a 56.69854,56.69854 0 0 0 0.28,2.2104 z"
     id="path4421" />
  <path
     style="display:inline;fill:none;stroke:#000000;stroke-width:1px;stroke-linecap:butt;stroke-linejoin:miter;stroke-opacity:1"
     d="m 795.13478,1564.6552 433.08882,-32.0713 17.6607,-29.1699 -454.89342,4.7176 z"
     id="path4419" />
  <path
     style="display:inline;fill:none;stroke:#000000;stroke-width:1px;stroke-linecap:butt;stroke-linejoin:miter;stroke-opacity:1"
     d="m 812.10458,1419.9317 379.34682,-5.6891 26.5936,-30.7268 -400.68342,-18.2504 z"
     id="path1062" />
  <path
     id="path1258"
     style="display:inline;fill:none;stroke:#000000;stroke-width:1px;stroke-linecap:butt;stroke-linejoin:miter;stroke-opacity:1"
     inkscape:label="fuse front side red FUSE L"
     d="m 844.64758,1804.2042 h -83.836 c 0.047,5.1366 0.017,10.2673 -0.1972,15.3731 l 1.6484,1410.3965 h 7.5586 l 73.9433,-1410.3965 c 0.3036,-5.4313 0.5884,-10.2115 0.8829,-15.3731 z" />
  <path
     id="path1256"
     style="display:inline;fill:none;stroke:#000000;stroke-width:1px;stroke-linecap:butt;stroke-linejoin:miter;stroke-opacity:1"
     inkscape:label="fuse front side red FUSE R"
     d="M 134.86898,3734.0178 H 51.033027 c 0.047,-5.1366 0.017,-10.2673 -0.1972,-15.3731 l 1.6484,-1410.3965 h 7.55858 l 73.943273,1410.3965 c 0.3036,5.4313 0.5884,10.2115 0.8829,15.3731 z" />
  <path
     id="path1249"
     style="display:inline;fill:none;stroke:#000000;stroke-width:1px;stroke-linecap:butt;stroke-linejoin:miter;stroke-opacity:1"
     inkscape:label="fuse front side red COWL FULL"
     d="m 1206.3109,1565.7164 -430.71292,22.582 v 60.0644 l 430.71292,0.5039 c 15.3548,-0.6429 30.9257,0.3021 46.252,0.3731 85.4157,0.3947 169.2221,11.4757 241.0801,45.2422 v -236.4808 -236.4807 c -71.858,33.7665 -155.6644,44.8475 -241.0801,45.2422 -15.3263,0.071 -30.8972,1.016 -46.252,0.3731 l -430.71292,0.5039 v 60.0644 l 430.71292,22.582 c 199.1046,11.1291 214.7051,14.8277 214.7051,107.7151 0,92.8875 -15.6005,96.5861 -214.7051,107.7152 z"
     sodipodi:nodetypes="ccccscccscccccc" />
  <path
     id="path1006"
     style="display:inline;fill:none;stroke:#000000;stroke-width:1px;stroke-linecap:butt;stroke-linejoin:miter;stroke-opacity:1"
     d="m 970.96188,3676.788 c 47.60532,15.2094 74.57562,21.946 118.82932,31.129 l 379.3647,-373.6257 -99.3075,-261.5088 z" />
  <path
     id="path1008"
     style="display:inline;fill:none;stroke:#000000;stroke-width:1px;stroke-linecap:butt;stroke-linejoin:miter;stroke-opacity:1"
     d="m 858.50088,3629.4917 c 26.5318,19.9026 51.6815,37.0108 81.2835,55.07 l 513.32212,-782.1399 -105.4168,-368.4664 z" />
  <path
     id="path1011"
     style="display:inline;fill:none;stroke:#000000;stroke-width:1px;stroke-linecap:butt;stroke-linejoin:miter;stroke-opacity:1"
     d="m 801.70708,3522.6963 c 16.9045,24.9025 34.48,48.5957 52.6582,71.1436 l 601.93752,-1343.0577 -54.6586,-254.7816 a 75.598158,75.598158 0 0 0 -30.0841,-45.7341 l -20.1684,-14.3514 z" />
  <path
     id="path1013"
     style="display:inline;fill:none;stroke:#000000;stroke-width:1px;stroke-linecap:butt;stroke-linejoin:miter;stroke-opacity:1"
     d="m 789.86978,3271.6765 c 10.8285,39.3569 22.9427,76.9654 36.239,112.9037 L 1348.6758,1868.212 c -40.2165,-23.2546 -84.3989,-46.6121 -128.7829,-66.8283 -8.5249,-3.883 -16.9416,-7.565 -25.2832,-11.0946 z" />
  <path
     id="path1015"
     style="display:inline;fill:none;stroke:#000000;stroke-width:1px;stroke-linecap:butt;stroke-linejoin:miter;stroke-opacity:1"
     d="m 817.30068,2925.4552 c 0,36.1292 0.8827,71.2691 2.5898,105.4668 L 1160.6542,1792.4278 c -40.3134,-8.2449 -80.9896,-12.6992 -123.7519,-14.1289 -11.6271,-0.3887 -23.7313,-0.4098 -36.1582,0.02 l -182.06062,861.1582 c -1.1672,91.6056 -1.3828,180.7246 -1.3828,285.9785 z" />
  <path
     id="path899"
     style="display:inline;fill:none;stroke:#000000;stroke-width:1px;stroke-linecap:butt;stroke-linejoin:miter;stroke-opacity:1"
     d="m 207.63868,1774.6196 419.7862,636.6076 95.263,-282.7646 -398.9607,-390.1044 c -46.6612,11.968 -70.9405,19.4673 -116.0885,36.2614 z" />
  <path
     id="path903"
     style="display:inline;fill:none;stroke:#000000;stroke-width:1px;stroke-linecap:butt;stroke-linejoin:miter;stroke-opacity:1"
     d="m 103.91791,1823.86 511.01827,1170.0133 101.3429,-396.1947 -533.6362,-832.0658 c -30.1102,20.1223 -53.0926,37.3024 -78.72497,58.2472 z" />
  <path
     id="path907"
     style="display:inline;fill:none;stroke:#000000;stroke-width:1px;stroke-linecap:butt;stroke-linejoin:miter;stroke-opacity:1"
     d="m 46.234367,1920.9307 568.286513,1700.3616 22.5863,-16.5778 a 75.598135,75.598135 0 0 0 29.4925,-46.5935 L 718.81328,3287.9744 97.045212,1846.3843 c -17.610805,23.6524 -34.566805,48.4861 -50.810845,74.5464 z" />
  <path
     id="path911"
     style="display:inline;fill:none;stroke:#000000;stroke-width:1px;stroke-linecap:butt;stroke-linejoin:miter;stroke-opacity:1"
     d="M 40.763667,2182.1074 461.56248,3769.1249 c 12.1832,-5.4164 24.5213,-11.2137 37.0733,-17.4583 39.8505,-19.8258 79.5926,-42.7629 116.175,-65.6738 L 74.232007,2060.8367 c -12.527,38.5788 -23.71824,78.9793 -33.46834,121.2707 z" />
  <path
     id="path915"
     style="display:inline;fill:none;stroke:#000000;stroke-width:1px;stroke-linecap:butt;stroke-linejoin:miter;stroke-opacity:1"
     d="m 95.999812,2467.0343 c 0,157.0076 7.601998,310.7794 18.882798,497.2246 l 158.59367,800.9942 c 18.6431,1.4316 36.6981,1.6712 53.7129,1.0703 36.466,-1.2879 71.4485,-4.9724 106.0039,-11.5293 L 96.101312,2446.6281 c -0.062,6.77 -0.1015,13.5661 -0.1015,20.4062 z" />
  <path
     id="path1138"
     style="display:inline;fill:none;stroke:#000000;stroke-width:1px;stroke-linecap:butt;stroke-linejoin:miter;stroke-opacity:1"
     d="m 1418.2709,3411.6108 -225.2308,236.9164 204.6463,94.9751 52.7582,-139.8188 c -4.0719,-87.7743 -9.6845,-120.5377 -32.1733,-192.0725 z"
     sodipodi:nodetypes="ccccsc" />
  <path
     id="path1136"
     style="fill:none;stroke:#000000;stroke-width:1px;stroke-linecap:butt;stroke-linejoin:miter;stroke-opacity:1"
     d="m 333.83708,1171.0949 -219.72757,519.058 197.52037,-72.9562 87.5296,-433.7014 c -27.8851,-7.1463 -37.41,-8.917 -65.3224,-12.4004 z" />
  <path
     id="path1134"
     style="fill:none;stroke:#000000;stroke-width:1px;stroke-linecap:butt;stroke-linejoin:miter;stroke-opacity:1"
     d="m 418.76338,1253.549 71.0175,416.3516 c 35.2643,5.0396 68.5299,-0.9939 94.4786,-5.7422 l -150.0371,-572.998 c -10.4066,51.9011 -15.2528,98.1147 -15.459,162.3886 z" />
  <path
     id="path1132"
     style="display:inline;fill:none;stroke:#000000;stroke-width:1px;stroke-linecap:butt;stroke-linejoin:miter;stroke-opacity:1"
     d="m 423.19848,1012.574 182.548,643.2133 c 17.4084,-7.1975 34.211,-14.9038 50.1084,-22.3674 40.1067,-18.8299 72.0683,-36.5567 83.6749,-43.1319 L 457.59548,950.81228 c -13.7466,21.3978 -23.0402,38.0753 -34.397,61.76172 z" />
  <path
     id="path1242"
     style="display:inline;fill:none;stroke:#000000;stroke-width:1px;stroke-linecap:butt;stroke-linejoin:miter;stroke-opacity:1"
     d="m 680.81968,2044.8391 -238.1534,-223.9224 199.0023,-106.294 60.5108,136.6424 c 0.8532,87.8646 -2.9145,120.8911 -21.3593,193.5738 z"
     sodipodi:nodetypes="ccccsc" />
  <path
     id="path1244"
     style="font-variation-settings:normal;opacity:1;vector-effect:none;fill:none;fill-opacity:1;stroke:#000000;stroke-width:1px;stroke-linecap:butt;stroke-linejoin:miter;stroke-miterlimit:4;stroke-dasharray:none;stroke-dashoffset:0;stroke-opacity:1;stop-color:#000000;stop-opacity:1"
     d="m 685.11528,1438.5646 -226.7975,-516.00812 198.4986,70.2512 93.4457,432.46532 c -27.7849,7.5265 -37.2848,9.4272 -65.1468,13.2916 z" />
  <path
     id="path1246"
     style="fill:none;stroke:#000000;stroke-width:1px;stroke-linecap:butt;stroke-linejoin:miter;stroke-opacity:1"
     d="M 43.314377,1383.6792 114.33191,967.32758 c 35.26427,-5.0396 68.52987,0.9939 94.47857,5.7422 L 58.773407,1546.0678 c -10.40663,-51.9011 -15.25283,-98.1147 -15.45903,-162.3886 z" />
  <path
     id="path1248"
     style="display:inline;fill:none;stroke:#000000;stroke-width:1px;stroke-linecap:butt;stroke-linejoin:miter;stroke-opacity:1"
     d="M 59.410407,1628.2735 228.56048,981.40768 c 17.5541,6.8343 34.5131,14.19 50.5621,21.32192 40.4891,17.9929 72.8119,35.052 84.5527,41.3848 L 95.082812,1689.3075 c -14.188105,-21.1077 -23.826105,-37.5886 -35.672405,-61.034 z" />
  <rect
     style="opacity:0.480105;fill:#ff8080;fill-opacity:1;stroke:#000000;stroke-width:3.02362;stop-color:#000000"
     id="rect1656"
     width="3212.5984"
     height="1511.811"
     x="-3787.1599"
     y="14.200858"
     inkscape:label="red sheet"
     transform="rotate(-90)" />
</svg>
